<?xml version="1.0" encoding="utf-8"?>
<!-- Generator: Adobe Illustrator 25.2.1, SVG Export Plug-In . SVG Version: 6.00 Build 0)  -->
<svg version="1.1" id="Capa_1" xmlns="http://www.w3.org/2000/svg" xmlns:xlink="http://www.w3.org/1999/xlink" x="0px" y="0px"
	 viewBox="0 0 27 27" style="enable-background:new 0 0 27 27;" xml:space="preserve">
<style type="text/css">
	.st0{fill:#66182A;}
</style>
<rect x="5.3" y="10.7" class="st0" width="3.5" height="11.3"/>
<path class="st0" d="M7.1,9.2c1.2,0,2.1-0.9,2.1-2.1C9.2,5.9,8.2,5,7.1,5S5,5.9,5,7.1l0,0C5,8.2,5.9,9.2,7.1,9.2
	C7.1,9.2,7.1,9.2,7.1,9.2z"/>
<path class="st0" d="M14.5,16c0-1.6,0.7-2.5,2.1-2.5s1.9,0.9,1.9,2.5v6H22v-7.2c0-3-1.7-4.5-4.1-4.5c-1.4,0-2.7,0.7-3.4,1.9v-1.5
	h-3.4V22h3.4V16z"/>
</svg>
