<?xml version="1.0" encoding="utf-8"?>
<!-- Generator: Adobe Illustrator 25.2.1, SVG Export Plug-In . SVG Version: 6.00 Build 0)  -->
<svg version="1.1" id="Capa_1" xmlns="http://www.w3.org/2000/svg" xmlns:xlink="http://www.w3.org/1999/xlink" x="0px" y="0px"
	 viewBox="0 0 27 27" style="enable-background:new 0 0 27 27;" xml:space="preserve">
<style type="text/css">
	.st0{fill:#66182A;}
</style>
<path class="st0" d="M4.5,19.2C9.4,22.3,15.9,20.9,19,16c1.2-1.8,1.7-4,1.6-6.1c0.7-0.5,1.3-1.2,1.9-1.9c-0.7,0.3-1.4,0.5-2.1,0.6
	c0.8-0.4,1.3-1.2,1.6-2c-0.7,0.4-1.5,0.7-2.4,0.9c-1.4-1.5-3.7-1.6-5.2-0.2c-1,0.9-1.4,2.3-1.1,3.6c-3-0.2-5.8-1.6-7.6-3.9
	c-1,1.7-0.5,3.9,1.1,4.9c-0.6,0-1.2-0.2-1.7-0.5c0,1.8,1.2,3.3,3,3.7c-0.5,0.1-1.1,0.2-1.7,0.1c0.5,1.5,1.9,2.5,3.5,2.6
	C8.4,18.9,6.5,19.4,4.5,19.2z"/>
</svg>
