<?xml version="1.0" encoding="utf-8"?>
<!-- Generator: Adobe Illustrator 25.2.1, SVG Export Plug-In . SVG Version: 6.00 Build 0)  -->
<svg version="1.1" id="Capa_1" xmlns="http://www.w3.org/2000/svg" xmlns:xlink="http://www.w3.org/1999/xlink" x="0px" y="0px"
	 viewBox="0 0 27 27" style="enable-background:new 0 0 27 27;" xml:space="preserve">
<style type="text/css">
	.st0{fill-rule:evenodd;clip-rule:evenodd;fill:#66182A;}
</style>
<path class="st0" d="M22.5,13c-0.2-4.9-4.3-8.8-9.2-8.6C8.8,4.6,5,8.3,4.8,12.9c0,0.1,0,0.3,0,0.4c0,1.6,0.5,3.2,1.3,4.5l-1.6,4.7
	l4.9-1.6c4.3,2.3,9.7,0.7,12.1-3.6c0.7-1.3,1-2.7,1.1-4.1C22.6,13.2,22.6,13.1,22.5,13z M13.7,20.7c-1.5,0-2.9-0.4-4.1-1.2l-2.9,0.9
	l0.9-2.8c-0.9-1.3-1.4-2.8-1.4-4.3c0-0.2,0-0.5,0-0.7c0.5-4.1,4.2-7,8.3-6.6c3.5,0.4,6.3,3.2,6.6,6.7c0,0.2,0,0.4,0,0.6
	C21,17.3,17.7,20.6,13.7,20.7z"/>
<path class="st0" d="M17.7,15c-0.2-0.1-1.3-0.6-1.5-0.7c-0.2-0.1-0.3-0.1-0.5,0.1c-0.1,0.2-0.6,0.7-0.7,0.8s-0.3,0.2-0.5,0.1
	c-0.6-0.3-1.2-0.6-1.8-1.1c-0.5-0.4-0.9-0.9-1.2-1.5c-0.1-0.1-0.1-0.3,0.1-0.4c0,0,0,0,0,0c0.1-0.1,0.2-0.3,0.3-0.4l0.1-0.1
	c0.1-0.1,0.1-0.2,0.1-0.3c0.1-0.1,0.1-0.3,0-0.4c-0.1-0.1-0.5-1.2-0.7-1.6c-0.2-0.4-0.4-0.4-0.5-0.4c-0.1,0-0.3,0-0.4,0
	c-0.2,0-0.4,0.1-0.6,0.3c-0.5,0.5-0.8,1.1-0.8,1.8c0,0.2,0,0.5,0.1,0.7c0.2,0.5,0.4,1,0.8,1.5c0.9,1.4,2.2,2.6,3.7,3.3
	c2.2,0.9,2.2,0.6,2.6,0.5c0.6-0.1,1.1-0.5,1.5-1c0.1-0.3,0.2-0.7,0.1-1C18.1,15.2,18,15.1,17.7,15z"/>
</svg>
